<svg version="1.1" id="Layer_1" xmlns="http://www.w3.org/2000/svg" xmlns:xlink="http://www.w3.org/1999/xlink" x="0px" y="0px"
	 width="100%" viewBox="0 0 800 192" enable-background="new 0 0 800 192" xml:space="preserve">
<path fill="#FFFFFF" opacity="1.000000" stroke="none" 
	d="
M801.000000,86.000000 
	C801.000000,121.647224 801.000000,157.294449 801.000000,193.000000 
	C572.644043,193.000000 344.288055,193.000000 115.631676,192.617188 
	C117.153503,192.146576 119.030556,192.312546 120.789665,191.932541 
	C143.395203,187.049423 162.649200,176.118591 177.155228,158.132721 
	C195.816025,134.995392 201.240372,108.255692 194.803757,79.444214 
	C192.430878,68.822723 188.509277,58.420055 181.015778,49.968788 
	C181.004257,49.998932 181.068771,50.000648 181.037125,49.679844 
	C180.681915,48.886433 180.358353,48.413826 180.019684,47.969410 
	C180.004562,47.997601 180.068542,47.997627 179.976120,47.692600 
	C179.569382,47.100655 179.255081,46.813740 178.766663,46.262218 
	C177.794144,45.167793 176.828751,44.444382 176.222015,43.492397 
	C164.606369,25.267241 148.389664,12.901684 128.026428,6.015281 
	C121.827835,3.919051 115.349968,2.648634 109.000000,1.000001 
	C339.666687,1.000000 570.333374,1.000000 801.000000,1.000000 
	C801.000000,28.098162 801.000000,55.083038 800.652222,82.413918 
	C798.446411,79.880165 796.588379,77.000412 794.485474,73.888107 
	C791.893250,66.598930 786.557739,62.940170 779.777039,60.904285 
	C768.006470,57.370228 756.224976,57.864792 745.079590,62.607113 
	C729.969238,69.036514 727.205322,88.065689 738.015991,97.323059 
	C738.387573,97.742157 738.690735,97.903763 738.996094,98.033455 
	C738.998413,98.001541 738.935913,98.015327 738.965759,98.380043 
	C740.843628,100.882690 742.278320,103.894852 744.614868,104.999557 
	C752.573486,108.762276 760.849976,111.852676 768.983459,115.556519 
	C763.292847,123.005135 747.260620,123.339691 742.168640,113.308434 
	C741.138916,111.279892 740.381653,109.536026 737.624939,109.999947 
	C733.133301,110.755844 728.592407,111.239761 724.124451,112.107246 
	C721.517273,112.613441 719.798706,114.276695 721.593262,117.018845 
	C723.885376,120.521194 726.534302,123.790009 729.029785,127.460609 
	C729.340759,128.193420 729.651306,128.625107 729.979370,129.028824 
	C729.996826,129.000854 729.938660,129.032028 729.967773,129.383591 
	C733.299072,132.820709 736.114258,136.887863 739.992615,138.811829 
	C752.746033,145.138458 766.431274,145.400620 779.512146,140.579636 
	C796.317017,134.386154 801.896362,115.356155 789.925598,103.610550 
	C787.337219,98.276649 783.550659,94.687889 778.312561,92.729271 
	C771.238342,90.084106 764.137024,87.511261 757.159485,84.565224 
	C765.917908,78.623695 775.234253,79.861977 781.838867,87.371529 
	C782.543640,88.172951 783.905701,89.045723 784.816895,88.909424 
	C790.235107,88.099007 795.610352,87.001244 801.000000,86.000000 
M222.998550,98.001465 
	C222.998550,98.001465 222.935791,98.014664 222.996429,98.744034 
	C224.844376,100.881866 226.279022,103.893867 228.615448,104.998528 
	C236.573639,108.761131 244.849686,111.851418 252.961700,115.912071 
	C247.534317,122.983795 230.575363,123.473000 226.018509,112.836746 
	C224.740387,109.853477 222.939651,109.719978 220.197220,110.322517 
	C216.550613,111.123718 212.801926,111.456886 209.100220,112.011848 
	C205.825958,112.502724 203.450211,113.711090 205.899933,117.420944 
	C208.116684,120.777962 210.646286,123.928391 213.031113,127.769600 
	C213.341278,128.198608 213.651443,128.627625 213.996735,129.000977 
	C213.996735,129.000977 213.937943,129.030624 213.996948,129.733994 
	C217.467194,132.843658 220.657837,136.363266 224.473877,138.965897 
	C230.055237,142.772522 236.673721,142.700012 243.242142,143.158203 
	C253.046173,143.842117 262.145813,142.561081 270.336395,136.920456 
	C281.838806,128.999069 283.760223,110.839195 273.997620,104.242310 
	C272.065826,98.907921 268.330872,95.167656 263.189545,93.102524 
	C255.890717,90.170784 248.437424,87.623650 241.265701,84.228813 
	C249.021683,79.193260 260.146362,79.690285 264.201324,86.007660 
	C266.353943,89.361336 268.817444,89.231941 271.642883,88.915771 
	C275.156403,88.522621 278.603027,87.565941 282.105865,87.031792 
	C284.691162,86.637558 285.834503,85.405861 284.483063,83.035805 
	C282.731232,79.963562 280.644440,77.082329 278.214294,73.639893 
	C275.614288,66.869881 270.639618,62.831200 263.750427,60.890503 
	C251.977814,57.574150 240.197083,57.781399 229.053925,62.622429 
	C214.335587,69.016655 210.794296,87.380013 222.090057,97.586861 
	C222.391342,97.746376 222.692612,97.905891 222.998550,98.001465 
M639.933777,75.452911 
	C639.629761,75.260101 639.325684,75.067299 639.000916,74.163284 
	C637.004700,71.443146 635.444946,68.203979 632.935852,66.093666 
	C622.642639,57.436581 610.697754,57.293449 598.578674,60.896233 
	C581.225525,66.055016 572.456055,78.894661 570.190125,96.039482 
	C568.690125,107.388893 568.692932,119.018021 578.070312,128.503250 
	C578.376282,128.690399 578.682190,128.877548 578.997620,129.001862 
	C578.997620,129.001862 578.935303,129.014175 578.997192,129.735260 
	C587.029358,142.961456 599.793945,144.913971 613.275085,142.807220 
	C627.822754,140.533798 636.686768,130.825775 641.722351,116.886238 
	C639.006409,116.430359 636.462891,116.003433 634.060486,114.874557 
	C634.699036,113.080894 635.337585,111.287224 636.058167,109.263138 
	C632.133728,108.473625 628.521790,107.541893 624.850830,107.059700 
	C620.119080,106.438164 616.014160,105.344749 613.029602,111.928406 
	C609.785522,119.084473 602.588440,120.675888 595.871277,117.442566 
	C593.328674,111.355629 599.713928,89.597740 605.636963,85.809631 
	C610.447266,82.733154 615.182861,80.350327 621.010071,83.788063 
	C622.282410,84.529922 623.554810,85.271790 624.988831,86.780731 
	C625.891968,89.144981 626.795105,91.509239 627.668274,93.794922 
	C634.095398,93.091545 640.505615,92.390007 647.263733,91.650414 
	C645.319824,85.916840 645.361511,79.733505 640.003479,75.998077 
	C640.003479,75.998077 640.066772,75.991249 639.933777,75.452911 
M387.977173,51.905994 
	C387.439575,54.200897 386.902008,56.495796 386.364624,58.789825 
	C393.330872,58.789825 400.071472,58.789825 406.981873,58.789825 
	C408.099854,52.857079 409.184601,47.100540 410.302307,41.169147 
	C407.619049,41.031498 405.820679,40.939243 404.003845,40.013084 
	C404.273132,37.804668 404.542450,35.596249 404.824432,33.283676 
	C397.793976,33.283676 391.035400,33.283676 384.423157,33.283676 
	C383.258728,39.170067 382.153564,44.756794 380.967224,50.753933 
	C383.439026,50.885521 385.714752,51.006676 387.977173,51.905994 
M415.998779,129.001541 
	C415.998779,129.001541 415.942047,129.037186 416.172150,129.688599 
	C418.515656,132.137070 420.644653,134.845917 423.242432,136.985672 
	C431.338959,143.654648 441.013092,144.093628 450.762238,142.925644 
	C462.659576,141.500290 473.428497,133.238617 477.517731,121.580711 
	C474.680298,121.009399 471.860565,120.441666 469.289856,119.234734 
	C470.243927,117.808098 471.198029,116.381462 472.518799,114.406494 
	C469.300079,113.557175 466.658630,112.860176 464.946350,112.027176 
	C469.880096,112.027176 474.813843,112.027176 481.009247,112.027176 
	C481.009247,105.521301 481.435089,99.461411 480.897522,93.488243 
	C480.276276,86.585396 478.663544,79.820419 472.990112,74.997749 
	C472.990112,74.997749 473.067047,75.024300 472.927368,74.591530 
	C472.789276,74.285965 472.553131,74.120277 472.030853,73.382034 
	C469.060150,69.930977 466.675659,65.578484 463.010681,63.194927 
	C451.179779,55.500568 429.841064,58.467319 419.336578,68.046165 
	C410.730347,75.894020 406.262939,85.708466 405.156342,96.873199 
	C404.041412,108.122131 406.266388,118.769417 415.004089,127.698982 
	C415.322937,128.151535 415.641785,128.604080 415.998779,129.001541 
M657.998047,128.001389 
	C657.998047,128.001389 657.935303,128.012482 657.997253,128.733658 
	C666.642212,142.970444 680.448425,145.059189 694.868774,142.700150 
	C706.795837,140.748978 715.392029,133.066849 720.019775,121.569946 
	C717.091492,120.938568 714.556885,120.392090 712.032837,119.121559 
	C712.689453,117.543938 713.346069,115.966309 714.175964,113.972305 
	C711.501099,113.296211 709.259216,112.729561 707.945068,112.027061 
	C711.605713,112.021004 715.277039,111.840919 718.923584,112.064461 
	C721.791687,112.240280 722.884460,110.656181 722.940979,108.361237 
	C723.096558,102.042183 723.870850,95.548485 722.705200,89.447777 
	C721.796692,84.692894 718.346375,80.423676 716.003418,75.997910 
	C716.003418,75.997910 716.066223,75.989616 715.934570,75.445709 
	C715.627808,75.249153 715.321045,75.052605 714.998169,74.154358 
	C711.045227,67.463326 706.002319,61.672058 698.140442,60.110779 
	C681.388245,56.783947 666.764282,60.088123 655.788696,74.597473 
	C645.736816,87.885674 643.093018,114.484482 657.065247,127.445465 
	C657.373413,127.651825 657.681580,127.858185 657.998047,128.001389 
M398.015320,67.090851 
	C398.373749,65.227989 398.732178,63.365135 399.186920,61.001629 
	C393.182343,61.001629 387.711304,61.090523 382.245178,60.965122 
	C379.398987,60.899818 378.459442,61.852947 377.867432,64.849518 
	C374.615875,81.307961 370.916595,97.677399 367.463867,114.096916 
	C366.106750,120.550735 364.990326,127.055176 363.712952,133.807953 
	C366.376953,133.943115 368.183075,134.034744 369.996094,134.962448 
	C369.704437,137.180481 369.412781,139.398514 369.070648,142.000549 
	C375.072235,142.000549 380.884491,142.174774 386.669312,141.854416 
	C387.834625,141.789871 389.562012,140.020691 389.890015,138.744400 
	C391.298309,133.264511 392.244354,127.667427 393.425476,122.127266 
	C397.247345,104.200226 401.098572,86.279449 405.035187,67.905037 
	C402.352692,67.905037 400.208435,67.905037 398.015320,67.090851 
M314.014221,117.045425 
	C315.011780,110.532669 315.343597,103.828545 317.148987,97.548012 
	C320.635498,85.419228 329.846924,79.910210 339.983582,83.788673 
	C341.213379,84.508049 342.443146,85.227425 343.967865,86.712875 
	C344.432800,88.405205 344.683380,90.202690 345.442749,91.750572 
	C345.901001,92.684692 347.224060,93.926025 348.031372,93.839737 
	C353.622345,93.242142 359.179901,92.331963 365.040009,91.479713 
	C364.966644,84.877907 362.756531,79.256226 357.666107,74.090157 
	C354.833008,70.739159 352.528503,66.652405 349.071960,64.169258 
	C336.578888,55.194263 314.184143,57.994511 302.281708,69.132072 
	C293.537018,77.314819 289.334473,87.670120 288.184570,99.064163 
	C287.061523,110.192284 288.452240,121.106010 298.006592,129.787369 
	C298.020355,129.952744 297.982910,130.145752 298.055115,130.279587 
	C304.853119,142.877594 320.663818,145.089447 334.349792,142.232925 
	C345.472015,139.911484 352.309631,132.328735 357.897247,123.272865 
	C361.288086,117.777321 360.597931,116.615929 354.396698,115.942650 
	C353.850525,115.883347 353.357147,115.338188 352.988739,114.280106 
	C353.525787,112.625427 354.062836,110.970749 354.599487,109.317276 
	C351.033661,108.567184 347.682678,107.891670 344.345337,107.154472 
	C335.957550,105.301682 335.960052,105.290535 331.133972,112.540993 
	C326.828705,119.008980 320.900848,120.889183 314.014221,117.045425 
M534.974731,134.881439 
	C534.328979,137.140518 533.683289,139.399597 533.000366,141.788757 
	C540.181702,141.788757 546.965698,141.788757 553.720886,141.788757 
	C557.390015,124.655739 561.135925,107.757263 564.584412,90.798294 
	C566.184326,82.930481 564.307617,74.473289 558.017029,70.295448 
	C554.592468,59.081203 542.073792,57.292694 533.020813,59.668331 
	C526.834595,61.291672 521.059570,64.481689 514.983276,67.020294 
	C515.157715,65.391205 515.376099,63.351357 515.610474,61.162003 
	C509.281494,61.162003 502.981537,61.162003 496.242676,61.162003 
	C491.186584,85.233444 486.135773,109.279915 480.998627,133.737350 
	C483.431702,133.867111 485.701904,133.988190 487.992554,134.933716 
	C487.587708,137.118332 487.182892,139.302948 486.722046,141.789642 
	C493.684723,141.789642 500.126282,141.789642 506.762939,141.789642 
	C509.850433,128.052277 512.952209,114.361328 515.998230,100.657974 
	C517.880188,92.191422 523.365845,86.597900 530.766663,82.911446 
	C533.054260,81.771980 536.161011,82.277145 538.682007,82.785721 
	C535.069397,99.692551 531.456787,116.599380 527.716919,134.101700 
	C530.697510,134.101700 532.831299,134.101700 534.974731,134.881439 
z"/>
<path fill="#3399CC" opacity="1.000000" stroke="none" 
	d="
M108.531349,1.000001 
	C115.349968,2.648634 121.827835,3.919051 128.026428,6.015281 
	C148.389664,12.901684 164.606369,25.267241 176.222015,43.492397 
	C176.828751,44.444382 177.794144,45.167793 178.809082,46.623417 
	C179.373245,47.498688 179.720886,47.748158 180.068542,47.997627 
	C180.068542,47.997627 180.004562,47.997601 179.874664,48.299591 
	C180.186096,49.067936 180.627441,49.534290 181.068771,50.000648 
	C181.068771,50.000648 181.004257,49.998932 180.898819,50.342506 
	C181.333801,52.071335 181.793106,53.494900 182.426529,54.836235 
	C198.380981,88.621246 191.470947,129.409653 165.271576,155.990723 
	C129.858704,191.919464 73.247963,194.855301 34.175987,162.862320 
	C32.927971,161.840408 31.068903,161.564789 29.275509,160.821899 
	C28.390469,159.970276 27.724617,159.237991 27.223886,158.153473 
	C26.978951,157.207687 26.568893,156.614136 26.013214,155.710251 
	C15.865644,145.718857 9.313478,133.939606 5.074816,120.816147 
	C3.502067,115.946709 2.346059,110.942657 1.000000,106.000000 
	C1.000000,97.645767 1.000000,89.291534 1.359620,80.282852 
	C1.854939,77.983940 1.753744,76.278168 2.161202,74.704056 
	C10.907842,40.913677 31.218269,17.500586 64.442741,5.930183 
	C70.469856,3.831245 76.806335,2.620682 83.000000,1.000000 
	C91.354233,1.000000 99.708466,1.000000 108.531349,1.000001 
M101.155457,52.976616 
	C100.519905,55.768375 101.037277,57.324955 104.499382,57.180271 
	C110.296349,56.938004 116.112724,57.190693 121.916153,57.044968 
	C123.025032,57.017124 124.904762,56.307491 125.085075,55.579548 
	C126.725029,48.959076 128.066849,42.264751 129.627426,34.977650 
	C126.006233,34.977650 123.544701,34.977650 121.021332,34.201355 
	C121.238266,32.771385 121.455200,31.341415 121.700981,29.721273 
	C113.404213,29.721273 105.391449,29.721273 97.236572,29.721273 
	C95.711868,37.135616 94.257362,44.208569 92.734459,51.614120 
	C96.031502,51.801975 98.655258,51.951466 101.155457,52.976616 
M79.852058,155.909851 
	C79.568810,157.309204 79.285553,158.708572 78.869507,160.763947 
	C85.922142,160.763947 92.378784,160.558243 98.813477,160.845062 
	C102.377579,161.003922 103.679527,159.768723 104.383148,156.305450 
	C109.472229,131.256561 114.786842,106.253555 120.009094,81.231644 
	C120.799957,77.442291 121.482140,73.630264 122.323227,69.264847 
	C118.920723,69.264847 116.453217,69.264847 113.929207,68.326057 
	C113.929207,67.039337 113.929207,65.752617 113.929207,64.231018 
	C106.088936,64.231018 98.324638,64.231018 90.075645,64.231018 
	C83.783005,94.303223 77.482941,124.410851 71.049591,155.155487 
	C74.354332,155.155487 77.153648,155.155487 79.852058,155.909851 
z"/>
<path fill="#FFFFFF" opacity="1.000000" stroke="none" 
	d="
M1.000000,106.468658 
	C2.346059,110.942657 3.502067,115.946709 5.074816,120.816147 
	C9.313478,133.939606 15.865644,145.718857 25.945564,156.066467 
	C26.368614,157.323929 26.713692,157.914825 27.058769,158.505722 
	C27.724617,159.237991 28.390469,159.970276 29.519791,161.086761 
	C41.248558,174.446213 55.278378,183.295197 71.461617,188.693298 
	C77.153313,190.591827 83.145187,191.590469 89.000000,193.000000 
	C59.740181,193.000000 30.480360,193.000000 1.000000,193.000000 
	C1.000000,164.312820 1.000000,135.625061 1.000000,106.468658 
z"/>
<path fill="#3F4041" opacity="1.000000" stroke="none" 
	d="
M89.468651,193.000000 
	C83.145187,191.590469 77.153313,190.591827 71.461617,188.693298 
	C55.278378,183.295197 41.248558,174.446213 29.738979,161.206116 
	C31.068903,161.564789 32.927971,161.840408 34.175987,162.862320 
	C73.247963,194.855301 129.858704,191.919464 165.271576,155.990723 
	C191.470947,129.409653 198.380981,88.621246 182.426529,54.836235 
	C181.793106,53.494900 181.333801,52.071335 180.910339,50.312366 
	C188.509277,58.420055 192.430878,68.822723 194.803757,79.444214 
	C201.240372,108.255692 195.816025,134.995392 177.155228,158.132721 
	C162.649200,176.118591 143.395203,187.049423 120.789665,191.932541 
	C119.030556,192.312546 117.153503,192.146576 115.165634,192.617188 
	C106.645767,193.000000 98.291534,193.000000 89.468651,193.000000 
z"/>
<path fill="#FFFFFF" opacity="1.000000" stroke="none" 
	d="
M82.531342,1.000000 
	C76.806335,2.620682 70.469856,3.831245 64.442741,5.930183 
	C31.218269,17.500586 10.907842,40.913677 2.161202,74.704056 
	C1.753744,76.278168 1.854939,77.983940 1.359620,79.814194 
	C1.000000,53.738411 1.000000,27.476826 1.000000,1.000000 
	C28.020514,1.000000 55.041599,1.000000 82.531342,1.000000 
z"/>
<path fill="#3F4142" opacity="1.000000" stroke="none" 
	d="
M801.000000,85.625000 
	C795.610352,87.001244 790.235107,88.099007 784.816895,88.909424 
	C783.905701,89.045723 782.543640,88.172951 781.838867,87.371529 
	C775.234253,79.861977 765.917908,78.623695 756.786682,84.629776 
	C754.322021,83.351624 751.616455,81.992195 750.656067,79.850273 
	C750.144470,78.709396 752.219421,75.577560 753.878357,74.452843 
	C758.561584,71.277840 770.542969,72.164383 773.871216,76.701805 
	C777.265015,81.328773 780.808044,81.152596 785.285522,80.019791 
	C787.200256,79.535378 789.169434,79.161095 791.135071,79.006393 
	C794.337280,78.754379 795.588989,77.264107 794.730286,74.120674 
	C796.588379,77.000412 798.446411,79.880165 800.652222,82.879959 
	C801.000000,83.750000 801.000000,84.500000 801.000000,85.625000 
z"/>
<path fill="#3398CB" opacity="1.000000" stroke="none" 
	d="
M414.944427,127.078621 
	C406.266388,118.769417 404.041412,108.122131 405.156342,96.873199 
	C406.262939,85.708466 410.730347,75.894020 419.336578,68.046165 
	C429.841064,58.467319 451.179779,55.500568 463.010681,63.194927 
	C466.675659,65.578484 469.060150,69.930977 472.198120,73.943405 
	C472.560211,74.730682 472.794098,74.903854 473.067047,75.024300 
	C473.067047,75.024300 472.990112,74.997749 472.962128,75.371445 
	C473.616516,82.809341 474.452576,89.863274 474.925964,96.941452 
	C475.230042,101.488350 473.354706,103.536644 468.164154,103.366920 
	C455.040710,102.937805 441.892670,103.143364 428.758026,103.336365 
	C427.251007,103.358513 424.427399,105.024994 424.487213,105.738495 
	C424.900299,110.665131 425.515320,115.753853 431.126221,118.507248 
	C439.032837,123.102158 447.471191,120.822243 453.292969,111.946335 
	C457.093903,111.897308 460.555542,112.030251 464.017181,112.163185 
	C466.658630,112.860176 469.300079,113.557175 472.518799,114.406494 
	C471.198029,116.381462 470.243927,117.808098 468.874359,119.731636 
	C455.135345,136.601974 437.433258,139.879623 418.656311,129.505783 
	C417.897003,129.086273 416.853271,129.181686 415.942047,129.037186 
	C415.942047,129.037186 415.998779,129.001541 416.140808,128.721375 
	C415.836731,127.987007 415.390564,127.532814 414.944427,127.078621 
M456.076385,82.329033 
	C455.378235,77.888214 452.408142,75.604637 448.508759,73.967911 
	C440.332855,70.536118 427.521515,78.060631 427.319366,91.931664 
	C430.283203,91.572113 433.148041,91.224579 436.945404,90.980408 
	C443.488403,90.980408 450.031372,90.980408 457.421234,90.980408 
	C456.854248,87.968536 456.393463,85.520760 456.076385,82.329033 
z"/>
<path fill="#3398CB" opacity="1.000000" stroke="none" 
	d="
M707.017334,112.162910 
	C709.259216,112.729561 711.501099,113.296211 714.175964,113.972305 
	C713.346069,115.966309 712.689453,117.543938 711.703979,119.589195 
	C710.455017,120.985291 709.474182,121.861618 708.624146,122.850372 
	C701.243164,131.435699 691.863831,135.182571 680.593750,135.332062 
	C672.075684,135.445053 664.998047,131.956146 657.935303,128.012482 
	C657.935303,128.012482 657.998047,128.001389 658.003967,127.755859 
	C657.720459,127.294579 657.431030,127.078827 657.141602,126.863083 
	C643.093018,114.484482 645.736816,87.885674 655.788696,74.597473 
	C666.764282,60.088123 681.388245,56.783947 698.140442,60.110779 
	C706.002319,61.672058 711.045227,67.463326 715.036133,74.815781 
	C715.404846,75.648018 715.735535,75.818825 716.066223,75.989624 
	C716.066223,75.989616 716.003418,75.997910 715.905029,76.395218 
	C716.234375,83.726318 716.624878,90.662682 717.103943,97.592926 
	C717.395203,101.806908 715.786377,103.413391 711.337585,103.320778 
	C698.374268,103.050896 685.401794,103.214737 672.432861,103.237373 
	C670.689758,103.240417 668.946899,103.409431 666.937988,103.515648 
	C666.942200,109.692429 667.102966,115.076439 673.046387,118.013885 
	C673.001465,118.020386 672.969238,117.935509 673.092407,118.102303 
	C673.361511,118.524529 673.579041,118.679626 674.224915,118.921555 
	C683.786011,122.819939 690.308411,120.596367 695.322998,111.997040 
	C699.454651,111.945602 703.235962,112.054253 707.017334,112.162910 
M698.666138,82.271744 
	C696.084106,75.881752 690.970947,72.496544 684.964111,73.200188 
	C676.768372,74.160240 670.512512,81.345352 669.302551,91.937141 
	C672.326965,91.568848 675.169617,91.222687 678.944946,90.980385 
	C685.542480,90.980385 692.139954,90.980385 698.803162,90.980385 
	C698.803162,87.887047 698.803162,85.414772 698.666138,82.271744 
z"/>
<path fill="#3398CB" opacity="1.000000" stroke="none" 
	d="
M487.972137,134.109268 
	C485.701904,133.988190 483.431702,133.867111 480.998627,133.737350 
	C486.135773,109.279915 491.186584,85.233444 496.242676,61.162003 
	C502.981537,61.162003 509.281494,61.162003 515.610474,61.162003 
	C515.376099,63.351357 515.157715,65.391205 514.983276,67.020294 
	C521.059570,64.481689 526.834595,61.291672 533.020813,59.668331 
	C542.073792,57.292694 554.592468,59.081203 558.106445,71.065086 
	C557.835083,77.874847 558.092468,84.030243 556.991577,89.932320 
	C554.267151,104.539803 550.921204,119.031380 547.711670,134.101700 
	C543.204712,134.101700 539.084900,134.101700 534.965027,134.101700 
	C532.831299,134.101700 530.697510,134.101700 527.716919,134.101700 
	C531.456787,116.599380 535.069397,99.692551 538.848022,82.017700 
	C538.093201,74.770546 534.043335,71.849976 527.914062,73.680748 
	C518.360718,76.534309 512.409546,83.137794 510.109955,92.694038 
	C507.168884,104.915886 504.564819,117.222931 502.062134,129.543350 
	C501.421631,132.696487 500.343140,134.219894 496.915100,133.949783 
	C493.956665,133.716675 490.954803,134.034821 487.972137,134.109268 
z"/>
<path fill="#3398CB" opacity="1.000000" stroke="none" 
	d="
M241.050125,84.912163 
	C248.437424,87.623650 255.890717,90.170784 263.189545,93.102524 
	C268.330872,95.167656 272.065826,98.907921 273.996277,105.058716 
	C274.475281,120.294846 268.181854,130.042511 254.822006,133.438568 
	C242.026474,136.691177 229.167328,136.611679 217.080688,129.986313 
	C216.140884,129.471161 214.990463,129.340179 213.937943,129.030624 
	C213.937943,129.030624 213.996735,129.000977 214.127518,128.743896 
	C213.851501,128.047867 213.444702,127.608887 213.037918,127.169914 
	C210.646286,123.928391 208.116684,120.777962 205.899933,117.420944 
	C203.450211,113.711090 205.825958,112.502724 209.100220,112.011848 
	C212.801926,111.456886 216.550613,111.123718 220.197220,110.322517 
	C222.939651,109.719978 224.740387,109.853477 226.018509,112.836746 
	C230.575363,123.473000 247.534317,122.983795 253.288620,115.334351 
	C255.034637,111.197197 252.758560,109.275406 250.108826,108.224777 
	C241.115585,104.658905 232.002869,101.394325 222.935791,98.014664 
	C222.935791,98.014664 222.998550,98.001465 222.985107,97.744934 
	C222.633804,97.350609 222.295914,97.212822 221.958038,97.075027 
	C210.794296,87.380013 214.335587,69.016655 229.053925,62.622429 
	C240.197083,57.781399 251.977814,57.574150 263.750427,60.890503 
	C270.639618,62.831200 275.614288,66.869881 278.495056,74.279015 
	C277.950378,76.210358 277.127747,78.612465 276.299011,78.614578 
	C270.945953,78.628227 265.225616,83.755470 260.449615,79.288628 
	C254.512741,73.736061 247.375809,70.792824 239.909729,73.736763 
	C237.617111,74.640762 234.859100,77.569511 234.643982,79.796173 
	C234.310104,83.252373 237.316193,85.149628 241.050125,84.912163 
z"/>
<path fill="#3398CB" opacity="1.000000" stroke="none" 
	d="
M794.485474,73.888115 
	C795.588989,77.264107 794.337280,78.754379 791.135071,79.006393 
	C789.169434,79.161095 787.200256,79.535378 785.285522,80.019791 
	C780.808044,81.152596 777.265015,81.328773 773.871216,76.701805 
	C770.542969,72.164383 758.561584,71.277840 753.878357,74.452843 
	C752.219421,75.577560 750.144470,78.709396 750.656067,79.850273 
	C751.616455,81.992195 754.322021,83.351624 756.674561,84.971939 
	C764.137024,87.511261 771.238342,90.084106 778.312561,92.729271 
	C783.550659,94.687889 787.337219,98.276649 789.851624,104.070923 
	C790.773254,121.275963 783.686218,131.176102 767.436890,134.171997 
	C760.399780,135.469452 752.845764,135.109222 745.685913,134.219437 
	C740.304993,133.550735 735.178467,130.835938 729.938660,129.032028 
	C729.938660,129.032028 729.996826,129.000854 730.126709,128.741409 
	C729.847534,128.041122 729.438477,127.600281 729.029419,127.159454 
	C726.534302,123.790009 723.885376,120.521194 721.593262,117.018845 
	C719.798706,114.276695 721.517273,112.613441 724.124451,112.107246 
	C728.592407,111.239761 733.133301,110.755844 737.624939,109.999947 
	C740.381653,109.536026 741.138916,111.279892 742.168640,113.308434 
	C747.260620,123.339691 763.292847,123.005135 769.289124,115.335449 
	C771.037659,111.197113 768.760376,109.273842 766.110352,108.223190 
	C757.116821,104.657600 748.003479,101.394188 738.935913,98.015327 
	C738.935913,98.015327 738.998413,98.001541 738.984009,97.741623 
	C738.628967,97.343002 738.288208,97.204285 737.947510,97.065567 
	C727.205322,88.065689 729.969238,69.036514 745.079590,62.607113 
	C756.224976,57.864792 768.006470,57.370228 779.777039,60.904285 
	C786.557739,62.940170 791.893250,66.598930 794.485474,73.888115 
z"/>
<path fill="#3398CB" opacity="1.000000" stroke="none" 
	d="
M343.672943,85.946808 
	C342.443146,85.227425 341.213379,84.508049 339.977386,83.042618 
	C338.487183,72.655846 326.002869,71.629875 319.115601,77.336784 
	C311.279572,83.829834 305.548706,102.444748 309.012268,112.066360 
	C309.831146,114.341118 312.353241,116.002762 314.091827,117.946434 
	C320.900848,120.889183 326.828705,119.008980 331.133972,112.540993 
	C335.960052,105.290535 335.957550,105.301682 344.345337,107.154472 
	C347.682678,107.891670 351.033661,108.567184 354.599487,109.317276 
	C354.062836,110.970749 353.525787,112.625427 352.612854,114.784180 
	C350.871002,117.154297 349.521210,119.032394 348.136414,120.884346 
	C341.957092,129.148331 333.818176,133.978363 323.487000,135.072495 
	C314.253204,136.050446 305.724762,134.177063 297.936829,129.073257 
	C288.452240,121.106010 287.061523,110.192284 288.184570,99.064163 
	C289.334473,87.670120 293.537018,77.314819 302.281708,69.132072 
	C314.184143,57.994511 336.578888,55.194263 349.071960,64.169258 
	C352.528503,66.652405 354.833008,70.739159 357.775208,74.827545 
	C358.333862,78.106476 358.783386,80.648033 359.240356,83.231651 
	C353.645874,84.207397 348.659393,85.077103 343.672943,85.946808 
z"/>
<path fill="#3398CB" opacity="1.000000" stroke="none" 
	d="
M578.144409,127.943512 
	C568.692932,119.018021 568.690125,107.388893 570.190125,96.039482 
	C572.456055,78.894661 581.225525,66.055016 598.578674,60.896233 
	C610.697754,57.293449 622.642639,57.436581 632.935852,66.093666 
	C635.444946,68.203979 637.004700,71.443146 639.049805,74.822922 
	C639.421326,75.652130 639.744019,75.821701 640.066772,75.991257 
	C640.066772,75.991249 640.003479,75.998077 639.905396,76.415131 
	C639.920654,79.029388 640.034058,81.226601 640.138794,83.256592 
	C634.634766,84.247673 629.730957,85.130669 624.827148,86.013657 
	C623.554810,85.271790 622.282410,84.529922 621.056152,83.060005 
	C619.417297,76.370178 616.401001,73.922249 610.586487,73.899597 
	C604.003357,73.873947 598.442566,76.841484 596.060425,82.580948 
	C592.944885,90.087502 590.786926,98.159325 589.501160,106.193497 
	C588.748779,110.894638 590.065552,116.231468 595.887329,118.316147 
	C602.588440,120.675888 609.785522,119.084473 613.029602,111.928406 
	C616.014160,105.344749 620.119080,106.438164 624.850830,107.059700 
	C628.521790,107.541893 632.133728,108.473625 636.058167,109.263138 
	C635.337585,111.287224 634.699036,113.080894 633.665527,115.358826 
	C632.460754,116.873863 631.562012,117.847275 630.855042,118.944283 
	C623.708191,130.033279 613.358643,134.893753 600.371826,135.317566 
	C592.409424,135.577408 585.655884,132.549042 578.935303,129.014175 
	C578.935303,129.014175 578.997620,129.001862 579.008789,128.763306 
	C578.728149,128.331009 578.436279,128.137253 578.144409,127.943512 
z"/>
<path fill="#3398CB" opacity="1.000000" stroke="none" 
	d="
M369.989197,134.126373 
	C368.183075,134.034744 366.376953,133.943115 363.712952,133.807953 
	C364.990326,127.055176 366.106750,120.550735 367.463867,114.096916 
	C370.916595,97.677399 374.615875,81.307961 377.867432,64.849518 
	C378.459442,61.852947 379.398987,60.899818 382.245178,60.965122 
	C387.711304,61.090523 393.182343,61.001629 399.186920,61.001629 
	C398.732178,63.365135 398.373749,65.227989 397.761658,67.759827 
	C393.679565,86.180321 389.734528,103.907776 386.063873,121.691856 
	C383.629120,133.487900 383.804840,133.521683 371.963013,133.912033 
	C371.303436,133.933762 370.647064,134.052673 369.989197,134.126373 
z"/>
<path fill="#3F4041" opacity="1.000000" stroke="none" 
	d="
M487.982361,134.521484 
	C490.954803,134.034821 493.956665,133.716675 496.915100,133.949783 
	C500.343140,134.219894 501.421631,132.696487 502.062134,129.543350 
	C504.564819,117.222931 507.168884,104.915886 510.109955,92.694038 
	C512.409546,83.137794 518.360718,76.534309 527.914062,73.680748 
	C534.043335,71.849976 538.093201,74.770546 538.953369,81.639488 
	C536.161011,82.277145 533.054260,81.771980 530.766663,82.911446 
	C523.365845,86.597900 517.880188,92.191422 515.998230,100.657974 
	C512.952209,114.361328 509.850433,128.052277 506.762939,141.789642 
	C500.126282,141.789642 493.684723,141.789642 486.722046,141.789642 
	C487.182892,139.302948 487.587708,137.118332 487.982361,134.521484 
z"/>
<path fill="#3F4041" opacity="1.000000" stroke="none" 
	d="
M369.992645,134.544403 
	C370.647064,134.052673 371.303436,133.933762 371.963013,133.912033 
	C383.804840,133.521683 383.629120,133.487900 386.063873,121.691856 
	C389.734528,103.907776 393.679565,86.180321 397.786072,68.166916 
	C400.208435,67.905037 402.352692,67.905037 405.035187,67.905037 
	C401.098572,86.279449 397.247345,104.200226 393.425476,122.127266 
	C392.244354,127.667427 391.298309,133.264511 389.890015,138.744400 
	C389.562012,140.020691 387.834625,141.789871 386.669312,141.854416 
	C380.884491,142.174774 375.072235,142.000549 369.070648,142.000549 
	C369.412781,139.398514 369.704437,137.180481 369.992645,134.544403 
z"/>
<path fill="#3E4446" opacity="1.000000" stroke="none" 
	d="
M707.481201,112.094986 
	C703.235962,112.054253 699.454651,111.945602 694.856934,111.931580 
	C687.085022,112.026215 680.129395,112.026215 673.091248,112.026215 
	C673.091248,114.363884 673.091248,116.185638 673.091248,118.007385 
	C667.102966,115.076439 666.942200,109.692429 666.937988,103.515648 
	C668.946899,103.409431 670.689758,103.240417 672.432861,103.237373 
	C685.401794,103.214737 698.374268,103.050896 711.337585,103.320778 
	C715.786377,103.413391 717.395203,101.806908 717.103943,97.592926 
	C716.624878,90.662682 716.234375,83.726318 715.916138,76.365585 
	C718.346375,80.423676 721.796692,84.692894 722.705200,89.447777 
	C723.870850,95.548485 723.096558,102.042183 722.940979,108.361237 
	C722.884460,110.656181 721.791687,112.240280 718.923584,112.064461 
	C715.277039,111.840919 711.605713,112.021004 707.481201,112.094986 
z"/>
<path fill="#3E4446" opacity="1.000000" stroke="none" 
	d="
M464.481750,112.095184 
	C460.555542,112.030251 457.093903,111.897308 452.827576,111.893646 
	C444.734314,112.022919 437.445770,112.022919 430.076141,112.022919 
	C430.396576,114.491608 430.639740,116.365250 430.882935,118.238884 
	C425.515320,115.753853 424.900299,110.665131 424.487213,105.738495 
	C424.427399,105.024994 427.251007,103.358513 428.758026,103.336365 
	C441.892670,103.143364 455.040710,102.937805 468.164154,103.366920 
	C473.354706,103.536644 475.230042,101.488350 474.925964,96.941452 
	C474.452576,89.863274 473.616516,82.809341 472.974182,75.332581 
	C478.663544,79.820419 480.276276,86.585396 480.897522,93.488243 
	C481.435089,99.461411 481.009247,105.521301 481.009247,112.027176 
	C474.813843,112.027176 469.880096,112.027176 464.481750,112.095184 
z"/>
<path fill="#3F4142" opacity="1.000000" stroke="none" 
	d="
M729.967773,129.383591 
	C735.178467,130.835938 740.304993,133.550735 745.685913,134.219437 
	C752.845764,135.109222 760.399780,135.469452 767.436890,134.171997 
	C783.686218,131.176102 790.773254,121.275963 789.993164,104.388138 
	C801.896362,115.356155 796.317017,134.386154 779.512146,140.579636 
	C766.431274,145.400620 752.746033,145.138458 739.992615,138.811829 
	C736.114258,136.887863 733.299072,132.820709 729.967773,129.383591 
z"/>
<path fill="#3F4141" opacity="1.000000" stroke="none" 
	d="
M213.967438,129.382309 
	C214.990463,129.340179 216.140884,129.471161 217.080688,129.986313 
	C229.167328,136.611679 242.026474,136.691177 254.822006,133.438568 
	C268.181854,130.042511 274.475281,120.294846 274.045074,105.417725 
	C283.760223,110.839195 281.838806,128.999069 270.336395,136.920456 
	C262.145813,142.561081 253.046173,143.842117 243.242142,143.158203 
	C236.673721,142.700012 230.055237,142.772522 224.473877,138.965897 
	C220.657837,136.363266 217.467194,132.843658 213.967438,129.382309 
z"/>
<path fill="#3F4041" opacity="1.000000" stroke="none" 
	d="
M534.969849,134.491577 
	C539.084900,134.101700 543.204712,134.101700 547.711670,134.101700 
	C550.921204,119.031380 554.267151,104.539803 556.991577,89.932320 
	C558.092468,84.030243 557.835083,77.874847 558.174316,71.427307 
	C564.307617,74.473289 566.184326,82.930481 564.584412,90.798294 
	C561.135925,107.757263 557.390015,124.655739 553.720886,141.788757 
	C546.965698,141.788757 540.181702,141.788757 533.000366,141.788757 
	C533.683289,139.399597 534.328979,137.140518 534.969849,134.491577 
z"/>
<path fill="#3F4142" opacity="1.000000" stroke="none" 
	d="
M578.966248,129.374725 
	C585.655884,132.549042 592.409424,135.577408 600.371826,135.317566 
	C613.358643,134.893753 623.708191,130.033279 630.855042,118.944283 
	C631.562012,117.847275 632.460754,116.873863 633.594971,115.709808 
	C636.462891,116.003433 639.006409,116.430359 641.722351,116.886238 
	C636.686768,130.825775 627.822754,140.533798 613.275085,142.807220 
	C599.793945,144.913971 587.029358,142.961456 578.966248,129.374725 
z"/>
<path fill="#3F4041" opacity="1.000000" stroke="none" 
	d="
M297.971710,129.430313 
	C305.724762,134.177063 314.253204,136.050446 323.487000,135.072495 
	C333.818176,133.978363 341.957092,129.148331 348.136414,120.884346 
	C349.521210,119.032394 350.871002,117.154297 352.538086,115.153473 
	C353.357147,115.338188 353.850525,115.883347 354.396698,115.942650 
	C360.597931,116.615929 361.288086,117.777321 357.897247,123.272865 
	C352.309631,132.328735 345.472015,139.911484 334.349792,142.232925 
	C320.663818,145.089447 304.853119,142.877594 298.055115,130.279587 
	C297.982910,130.145752 298.020355,129.952744 297.971710,129.430313 
z"/>
<path fill="#3F4141" opacity="1.000000" stroke="none" 
	d="
M657.966309,128.373077 
	C664.998047,131.956146 672.075684,135.445053 680.593750,135.332062 
	C691.863831,135.182571 701.243164,131.435699 708.624146,122.850372 
	C709.474182,121.861618 710.455017,120.985291 711.698730,119.951218 
	C714.556885,120.392090 717.091492,120.938568 720.019775,121.569946 
	C715.392029,133.066849 706.795837,140.748978 694.868774,142.700150 
	C680.448425,145.059189 666.642212,142.970444 657.966309,128.373077 
z"/>
<path fill="#3F4141" opacity="1.000000" stroke="none" 
	d="
M416.057098,129.362885 
	C416.853271,129.181686 417.897003,129.086273 418.656311,129.505783 
	C437.433258,139.879623 455.135345,136.601974 468.749847,120.051231 
	C471.860565,120.441666 474.680298,121.009399 477.517731,121.580711 
	C473.428497,133.238617 462.659576,141.500290 450.762238,142.925644 
	C441.013092,144.093628 431.338959,143.654648 423.242432,136.985672 
	C420.644653,134.845917 418.515656,132.137070 416.057098,129.362885 
z"/>
<path fill="#3F4142" opacity="1.000000" stroke="none" 
	d="
M314.053040,117.495926 
	C312.353241,116.002762 309.831146,114.341118 309.012268,112.066360 
	C305.548706,102.444748 311.279572,83.829834 319.115601,77.336784 
	C326.002869,71.629875 338.487183,72.655846 339.932648,82.663872 
	C329.846924,79.910210 320.635498,85.419228 317.148987,97.548012 
	C315.343597,103.828545 315.011780,110.532669 314.053040,117.495926 
z"/>
<path fill="#3F4142" opacity="1.000000" stroke="none" 
	d="
M595.879272,117.879356 
	C590.065552,116.231468 588.748779,110.894638 589.501160,106.193497 
	C590.786926,98.159325 592.944885,90.087502 596.060425,82.580948 
	C598.442566,76.841484 604.003357,73.873947 610.586487,73.899597 
	C616.401001,73.922249 619.417297,76.370178 621.020203,82.705856 
	C615.182861,80.350327 610.447266,82.733154 605.636963,85.809631 
	C599.713928,89.597740 593.328674,111.355629 595.879272,117.879356 
z"/>
<path fill="#3F4142" opacity="1.000000" stroke="none" 
	d="
M241.157913,84.570488 
	C237.316193,85.149628 234.310104,83.252373 234.643982,79.796173 
	C234.859100,77.569511 237.617111,74.640762 239.909729,73.736763 
	C247.375809,70.792824 254.512741,73.736061 260.449615,79.288628 
	C265.225616,83.755470 270.945953,78.628227 276.299011,78.614578 
	C277.127747,78.612465 277.950378,76.210358 278.738831,74.518494 
	C280.644440,77.082329 282.731232,79.963562 284.483063,83.035805 
	C285.834503,85.405861 284.691162,86.637558 282.105865,87.031792 
	C278.603027,87.565941 275.156403,88.522621 271.642883,88.915771 
	C268.817444,89.231941 266.353943,89.361336 264.201324,86.007660 
	C260.146362,79.690285 249.021683,79.193260 241.157913,84.570488 
z"/>
<path fill="#3399CC" opacity="1.000000" stroke="none" 
	d="
M387.990479,51.127831 
	C385.714752,51.006676 383.439026,50.885521 380.967224,50.753933 
	C382.153564,44.756794 383.258728,39.170067 384.423157,33.283676 
	C391.035400,33.283676 397.793976,33.283676 404.824432,33.283676 
	C404.542450,35.596249 404.273132,37.804668 403.691711,40.635483 
	C402.461700,44.402584 401.543793,47.547287 400.498657,51.127831 
	C396.273499,51.127831 392.131989,51.127831 387.990479,51.127831 
z"/>
<path fill="#3F4040" opacity="1.000000" stroke="none" 
	d="
M387.983826,51.516914 
	C392.131989,51.127831 396.273499,51.127831 400.498657,51.127831 
	C401.543793,47.547287 402.461700,44.402584 403.700958,41.052433 
	C405.820679,40.939243 407.619049,41.031498 410.302307,41.169147 
	C409.184601,47.100540 408.099854,52.857079 406.981873,58.789825 
	C400.071472,58.789825 393.330872,58.789825 386.364624,58.789825 
	C386.902008,56.495796 387.439575,54.200897 387.983826,51.516914 
z"/>
<path fill="#3F4141" opacity="1.000000" stroke="none" 
	d="
M624.907959,86.397202 
	C629.730957,85.130669 634.634766,84.247673 640.138794,83.256592 
	C640.034058,81.226601 639.920654,79.029388 639.915283,76.384872 
	C645.361511,79.733505 645.319824,85.916840 647.263733,91.650414 
	C640.505615,92.390007 634.095398,93.091545 627.668274,93.794922 
	C626.795105,91.509239 625.891968,89.144981 624.907959,86.397202 
z"/>
<path fill="#3F4041" opacity="1.000000" stroke="none" 
	d="
M343.820404,86.329842 
	C348.659393,85.077103 353.645874,84.207397 359.240356,83.231651 
	C358.783386,80.648033 358.333862,78.106476 357.914429,75.126236 
	C362.756531,79.256226 364.966644,84.877907 365.040009,91.479713 
	C359.179901,92.331963 353.622345,93.242142 348.031372,93.839737 
	C347.224060,93.926025 345.901001,92.684692 345.442749,91.750572 
	C344.683380,90.202690 344.432800,88.405205 343.820404,86.329842 
z"/>
<path fill="#3F4142" opacity="1.000000" stroke="none" 
	d="
M222.966110,98.379349 
	C232.002869,101.394325 241.115585,104.658905 250.108826,108.224777 
	C252.758560,109.275406 255.034637,111.197197 253.309967,114.977486 
	C244.849686,111.851418 236.573639,108.761131 228.615448,104.998528 
	C226.279022,103.893867 224.844376,100.881866 222.966110,98.379349 
z"/>
<path fill="#3F4243" opacity="1.000000" stroke="none" 
	d="
M738.965759,98.380043 
	C748.003479,101.394188 757.116821,104.657600 766.110352,108.223190 
	C768.760376,109.273842 771.037659,111.197113 769.310791,114.978683 
	C760.849976,111.852676 752.573486,108.762276 744.614868,104.999557 
	C742.278320,103.894852 740.843628,100.882690 738.965759,98.380043 
z"/>
<path fill="#3F4141" opacity="1.000000" stroke="none" 
	d="
M414.974243,127.388802 
	C415.390564,127.532814 415.836731,127.987007 416.121765,128.748917 
	C415.641785,128.604080 415.322937,128.151535 414.974243,127.388802 
z"/>
<path fill="#3F4142" opacity="1.000000" stroke="none" 
	d="
M729.029785,127.460587 
	C729.438477,127.600281 729.847534,128.041122 730.109253,128.769379 
	C729.651306,128.625107 729.340759,128.193420 729.029785,127.460587 
z"/>
<path fill="#3F4141" opacity="1.000000" stroke="none" 
	d="
M213.034515,127.469757 
	C213.444702,127.608887 213.851501,128.047867 214.109955,128.771729 
	C213.651443,128.627625 213.341278,128.198608 213.034515,127.469757 
z"/>
<path fill="#3F4041" opacity="1.000000" stroke="none" 
	d="
M181.037125,49.679840 
	C180.627441,49.534290 180.186096,49.067936 179.889771,48.271400 
	C180.358353,48.413826 180.681915,48.886433 181.037125,49.679840 
z"/>
<path fill="#3F4243" opacity="1.000000" stroke="none" 
	d="
M738.015991,97.323059 
	C738.288208,97.204285 738.628967,97.343002 738.981750,97.773544 
	C738.690735,97.903763 738.387573,97.742157 738.015991,97.323059 
z"/>
<path fill="#3F4142" opacity="1.000000" stroke="none" 
	d="
M222.024048,97.330948 
	C222.295914,97.212822 222.633804,97.350609 222.982788,97.776901 
	C222.692612,97.905891 222.391342,97.746376 222.024048,97.330948 
z"/>
<path fill="#3E4446" opacity="1.000000" stroke="none" 
	d="
M716.000366,75.717667 
	C715.735535,75.818825 715.404846,75.648018 715.044189,75.166626 
	C715.321045,75.052605 715.627808,75.249153 716.000366,75.717667 
z"/>
<path fill="#3F4141" opacity="1.000000" stroke="none" 
	d="
M640.000244,75.722092 
	C639.744019,75.821701 639.421326,75.652130 639.060181,75.178528 
	C639.325684,75.067299 639.629761,75.260101 640.000244,75.722092 
z"/>
<path fill="#3E4446" opacity="1.000000" stroke="none" 
	d="
M472.997192,74.807915 
	C472.794098,74.903854 472.560211,74.730682 472.292175,74.299614 
	C472.553131,74.120277 472.789276,74.285965 472.997192,74.807915 
z"/>
<path fill="#3F4141" opacity="1.000000" stroke="none" 
	d="
M657.103394,127.154266 
	C657.431030,127.078827 657.720459,127.294579 657.999817,127.787437 
	C657.681580,127.858185 657.373413,127.651825 657.103394,127.154266 
z"/>
<path fill="#3F4142" opacity="1.000000" stroke="none" 
	d="
M578.107361,128.223373 
	C578.436279,128.137253 578.728149,128.331009 579.004089,128.794739 
	C578.682190,128.877548 578.376282,128.690399 578.107361,128.223373 
z"/>
<path fill="#3F4041" opacity="1.000000" stroke="none" 
	d="
M179.976120,47.692604 
	C179.720886,47.748158 179.373245,47.498688 178.983185,46.888020 
	C179.255081,46.813740 179.569382,47.100655 179.976120,47.692604 
z"/>
<path fill="#FDFEFE" opacity="1.000000" stroke="none" 
	d="
M79.952965,155.155487 
	C77.153648,155.155487 74.354332,155.155487 71.049591,155.155487 
	C77.482941,124.410851 83.783005,94.303223 90.075645,64.231018 
	C98.324638,64.231018 106.088936,64.231018 113.929207,64.231018 
	C113.929207,65.752617 113.929207,67.039337 113.754128,69.091782 
	C107.601784,98.148598 101.624519,126.439682 95.557518,155.155487 
	C90.190773,155.155487 85.071869,155.155487 79.952965,155.155487 
z"/>
<path fill="#424344" opacity="1.000000" stroke="none" 
	d="
M79.902512,155.532669 
	C85.071869,155.155487 90.190773,155.155487 95.557518,155.155487 
	C101.624519,126.439682 107.601784,98.148598 113.782379,69.561180 
	C116.453217,69.264847 118.920723,69.264847 122.323227,69.264847 
	C121.482140,73.630264 120.799957,77.442291 120.009094,81.231644 
	C114.786842,106.253555 109.472229,131.256561 104.383148,156.305450 
	C103.679527,159.768723 102.377579,161.003922 98.813477,160.845062 
	C92.378784,160.558243 85.922142,160.763947 78.869507,160.763947 
	C79.285553,158.708572 79.568810,157.309204 79.902512,155.532669 
z"/>
<path fill="#F7FAFB" opacity="1.000000" stroke="none" 
	d="
M101.279015,52.100952 
	C98.655258,51.951466 96.031502,51.801975 92.734459,51.614120 
	C94.257362,44.208569 95.711868,37.135616 97.236572,29.721273 
	C105.391449,29.721273 113.404213,29.721273 121.700981,29.721273 
	C121.455200,31.341415 121.238266,32.771385 120.883240,34.944221 
	C119.814171,40.013981 119.118164,44.413597 117.814728,48.625225 
	C117.402412,49.957520 115.453079,51.547344 114.058395,51.705223 
	C109.837746,52.182991 105.544174,52.016430 101.279015,52.100952 
z"/>
<path fill="#404142" opacity="1.000000" stroke="none" 
	d="
M101.217239,52.538784 
	C105.544174,52.016430 109.837746,52.182991 114.058395,51.705223 
	C115.453079,51.547344 117.402412,49.957520 117.814728,48.625225 
	C119.118164,44.413597 119.814171,40.013981 120.914154,35.332367 
	C123.544701,34.977650 126.006233,34.977650 129.627426,34.977650 
	C128.066849,42.264751 126.725029,48.959076 125.085075,55.579548 
	C124.904762,56.307491 123.025032,57.017124 121.916153,57.044968 
	C116.112724,57.190693 110.296349,56.938004 104.499382,57.180271 
	C101.037277,57.324955 100.519905,55.768375 101.217239,52.538784 
z"/>
<path fill="#3F4041" opacity="1.000000" stroke="none" 
	d="
M27.223888,158.153473 
	C26.713692,157.914825 26.368614,157.323929 26.091187,156.376801 
	C26.568893,156.614136 26.978951,157.207687 27.223888,158.153473 
z"/>
<path fill="#3F4142" opacity="1.000000" stroke="none" 
	d="
M436.012878,90.877037 
	C433.148041,91.224579 430.283203,91.572113 427.319366,91.931664 
	C427.521515,78.060631 440.332855,70.536118 448.508759,73.967911 
	C452.408142,75.604637 455.378235,77.888214 455.653534,82.546204 
	C445.867493,80.092110 439.531769,82.767029 436.012878,90.877037 
z"/>
<path fill="#FFFFFF" opacity="1.000000" stroke="none" 
	d="
M436.479126,90.928726 
	C439.531769,82.767029 445.867493,80.092110 455.581665,82.918175 
	C456.393463,85.520760 456.854248,87.968536 457.421234,90.980408 
	C450.031372,90.980408 443.488403,90.980408 436.479126,90.928726 
z"/>
<path fill="#FFFFFF" opacity="1.000000" stroke="none" 
	d="
M431.126221,118.507248 
	C430.639740,116.365250 430.396576,114.491608 430.076141,112.022919 
	C437.445770,112.022919 444.734314,112.022919 452.488281,112.075607 
	C447.471191,120.822243 439.032837,123.102158 431.126221,118.507248 
z"/>
<path fill="#3F4142" opacity="1.000000" stroke="none" 
	d="
M678.012329,90.876526 
	C675.169617,91.222687 672.326965,91.568848 669.302551,91.937141 
	C670.512512,81.345352 676.768372,74.160240 684.964111,73.200188 
	C690.970947,72.496544 696.084106,75.881752 698.359802,82.611191 
	C689.613220,79.926460 681.536194,83.120773 678.012329,90.876526 
z"/>
<path fill="#FFFFFF" opacity="1.000000" stroke="none" 
	d="
M678.478638,90.928459 
	C681.536194,83.120773 689.613220,79.926460 698.428345,82.946564 
	C698.803162,85.414772 698.803162,87.887047 698.803162,90.980385 
	C692.139954,90.980385 685.542480,90.980385 678.478638,90.928459 
z"/>
<path fill="#FFFFFF" opacity="1.000000" stroke="none" 
	d="
M673.046387,118.013885 
	C673.091248,116.185638 673.091248,114.363884 673.091248,112.026215 
	C680.129395,112.026215 687.085022,112.026215 694.506653,112.091675 
	C690.308411,120.596367 683.786011,122.819939 674.152283,118.721970 
	C673.515442,118.119431 673.264282,117.986191 672.969238,117.935509 
	C672.969238,117.935509 673.001465,118.020386 673.046387,118.013885 
z"/>
<path fill="#3E4446" opacity="1.000000" stroke="none" 
	d="
M673.092407,118.102303 
	C673.264282,117.986191 673.515442,118.119431 673.795410,118.534821 
	C673.579041,118.679626 673.361511,118.524529 673.092407,118.102303 
z"/>
</svg>