<svg xmlns="http://www.w3.org/2000/svg" viewBox="0 0 105.52 80.94"><defs><style>.cls-1{fill:#DE1E2E;}.cls-2{fill:#fff;}</style></defs><title>usace-logo</title><g id="Layer_2"><g id="Layer_1-2"><rect class="cls-1" width="105.52" height="80.94" rx="10.67" ry="10.67"/><path class="cls-2" d="M95.07,74.83H11A4.9,4.9,0,0,1,6.1,69.94V11A4.9,4.9,0,0,1,11,6.1H95.07A4.9,4.9,0,0,1,100,11v59A4.89,4.89,0,0,1,95.07,74.83ZM11,8.1A2.9,2.9,0,0,0,8.1,11v59A2.9,2.9,0,0,0,11,72.83H95.07A2.9,2.9,0,0,0,98,69.94V11A2.9,2.9,0,0,0,95.07,8.1Z"/><path class="cls-2" d="M84.5,52V26.42l4.12-4.12V16.42H83.69v4.33L80,20.68V16.42c0-.05-4.53,0-4.53,0v4.33H71.81V16.42c0-.06-4.87,0-4.87,0V22.3L71,26.42s.06,12.83.06,12.7-10.92,0-10.94,0,0-5.07,0-5.07l2.77-2.77V24.06c0-.14-4.12.06-4.39,0-.09,0,0,4.25,0,4.25H55.06V24.12H50.6a40.46,40.46,0,0,0,.07,4.12H46.82V24.12H42.49c-.13,0,0,7,0,7l3.11,3.11.07,4.86h-11V26.42l3.92-3.92V16.42H33.71v4.33l-3.78-.07V16.42H25.68s0,4.34,0,4.33-3.45-.07-3.78-.07V16.42s-4.93-.06-4.93,0v6.22l3.78,3.71V52.83s-3.92,3.85-3.92,4,.07,6.42.07,6.42H89V56.48ZM29.19,56.41h-3V45.74h3Zm.07-17.29h-3V28.45h3ZM41.08,53.23h-3V45.67h3ZM60.8,60.66H45.74V50.06s2.89-7.51,7.16-7.57l.13,0,.14-.15.17.17c4.65.38,7.46,7.53,7.46,7.53Zm7.29-7.36h-3V45.74h3Zm11.75,3.11h-3V45.74h3ZM80,37.9H77V27.23h3Z"/></g></g></svg>